<?xml version="1.0" encoding="UTF-8" standalone="no"?>
<svg
   version="1.1"
   viewBox="0 0 24 24"
   id="svg7"
   sodipodi:docname="document-open.svg"
   inkscape:version="1.1.2 (b8e25be833, 2022-02-05)"
   xmlns:inkscape="http://www.inkscape.org/namespaces/inkscape"
   xmlns:sodipodi="http://sodipodi.sourceforge.net/DTD/sodipodi-0.dtd"
   xmlns="http://www.w3.org/2000/svg"
   xmlns:svg="http://www.w3.org/2000/svg">
  <sodipodi:namedview
     id="namedview9"
     pagecolor="#ffffff"
     bordercolor="#999999"
     borderopacity="1"
     inkscape:pageshadow="0"
     inkscape:pageopacity="0"
     inkscape:pagecheckerboard="0"
     showgrid="false"
     inkscape:zoom="33.25"
     inkscape:cx="12"
     inkscape:cy="8.7669173"
     inkscape:window-width="1920"
     inkscape:window-height="991"
     inkscape:window-x="-9"
     inkscape:window-y="-9"
     inkscape:window-maximized="1"
     inkscape:current-layer="svg7" />
  <defs
     id="defs3">
    <style
       id="current-color-scheme"
       type="text/css">.ColorScheme-Text {
        color:#363636;
      }</style>
  </defs>
  <path
     class="ColorScheme-Text"
     d="m 3.6654135,0.94736842 c -1.5474511,0 -2.79323305,1.50902258 -2.79323305,3.38345868 V 19.556391 c 0,1.874436 1.24578195,3.383459 2.79323305,3.383459 H 20.424813 c 1.54745,0 2.793232,-1.509023 2.793232,-3.383459 V 6.0225564 c 0,-1.8744362 -1.245782,-3.3834586 -2.793232,-3.3834586 H 9.770164 C 8.960336,2.6003572 8.9255742,2.769168 8.3189398,2.0344398 7.7130737,1.3005508 7.4628558,0.9481297 6.4586466,0.94736842 Z m 0,1.69172938 h 2.7932331 c 0.4345712,-3e-6 0.7267015,2.339e-4 1.3938932,0.7962969 0.6686581,0.7978365 0.8921587,0.8954324 1.3966165,0.8954324 H 20.424881 c 0.773726,0 1.396617,0.7545113 1.396617,1.6917293 V 12.789473 H 2.2688668 V 4.3308271 c 0,-0.9372181 0.622891,-1.6917293 1.3966166,-1.6917293 z M 2.268797,14.481203 h 19.552631 v 5.075188 c 0,0.937218 -0.622891,1.691729 -1.396615,1.691729 H 3.6654135 c -0.7737256,0 -1.3966165,-0.754511 -1.3966165,-1.691729 z"
     fill="currentColor"
     id="path5"
     style="stroke-width:1.53711" />
</svg>
