<?xml version="1.0" encoding="UTF-8" standalone="no"?>
<svg
   version="1.1"
   viewBox="0 0 16 16"
   id="svg7"
   sodipodi:docname="document-save.svg"
   inkscape:version="1.1.2 (b8e25be833, 2022-02-05)"
   xmlns:inkscape="http://www.inkscape.org/namespaces/inkscape"
   xmlns:sodipodi="http://sodipodi.sourceforge.net/DTD/sodipodi-0.dtd"
   xmlns="http://www.w3.org/2000/svg"
   xmlns:svg="http://www.w3.org/2000/svg">
  <sodipodi:namedview
     id="namedview9"
     pagecolor="#ffffff"
     bordercolor="#999999"
     borderopacity="1"
     inkscape:pageshadow="0"
     inkscape:pageopacity="0"
     inkscape:pagecheckerboard="0"
     showgrid="false"
     inkscape:zoom="49.875"
     inkscape:cx="8"
     inkscape:cy="6.406015"
     inkscape:window-width="1920"
     inkscape:window-height="991"
     inkscape:window-x="-9"
     inkscape:window-y="-9"
     inkscape:window-maximized="1"
     inkscape:current-layer="svg7" />
  <defs
     id="defs3">
    <style
       id="current-color-scheme"
       type="text/css">.ColorScheme-Text {
        color:#363636;
      }</style>
  </defs>
  <path
     d="m 2.8367347,0.63909774 c -1.161952,0 -2.09738633,0.93798926 -2.09738633,2.10311496 V 13.257788 c 0,1.165125 0.93543433,2.103114 2.09738633,2.103114 H 13.323666 c 1.161953,0 2.097387,-0.937989 2.097387,-2.103114 V 6.332335 5.8969271 4.8453697 L 11.22628,0.63913981 H 10.177587 5.9828141 4.9341211 2.8367347 Z m 0,1.05155746 h 2.0973864 v 3.1546724 c 0,1.1651257 0.9354342,2.1031149 2.0973862,2.1031149 h 2.0973864 c 1.1619523,0 2.0973863,-0.9379892 2.0973863,-2.1031149 V 2.1261052 l 3.146079,3.1546723 v 7.9770105 c 0,0.582562 -0.467717,1.051557 -1.048693,1.051557 V 12.20623 c 0,-1.165126 -0.935434,-2.103115 -2.097386,-2.103115 H 4.9341211 c -1.1619522,0 -2.0973864,0.937989 -2.0973864,2.103115 v 2.103115 c -0.580976,0 -1.0486932,-0.468995 -1.0486932,-1.051557 V 2.7422127 c 0,-0.5825629 0.4677172,-1.0515575 1.0486932,-1.0515575 z m 3.1460794,0 H 8.0802005 V 5.8968851 H 7.0315073 c -0.5809759,0 -1.0486932,-0.4689947 -1.0486932,-1.0515575 z M 4.9341211,11.154672 H 11.22628 c 0.580976,0 1.048693,0.468995 1.048693,1.051558 v 2.103115 H 3.8854279 V 12.20623 c 0,-0.582563 0.4677171,-1.051558 1.0486932,-1.051558 z"
     style="fill:currentColor;stroke-width:1.05012"
     class="ColorScheme-Text"
     id="path5" />
</svg>
