<?xml version="1.0" encoding="UTF-8" standalone="no"?>
<svg
   version="1.1"
   viewBox="0 0 16 16"
   id="svg7"
   sodipodi:docname="document-save-as.svg"
   inkscape:version="1.1.2 (b8e25be833, 2022-02-05)"
   xmlns:inkscape="http://www.inkscape.org/namespaces/inkscape"
   xmlns:sodipodi="http://sodipodi.sourceforge.net/DTD/sodipodi-0.dtd"
   xmlns="http://www.w3.org/2000/svg"
   xmlns:svg="http://www.w3.org/2000/svg">
  <sodipodi:namedview
     id="namedview9"
     pagecolor="#ffffff"
     bordercolor="#999999"
     borderopacity="1"
     inkscape:pageshadow="0"
     inkscape:pageopacity="0"
     inkscape:pagecheckerboard="0"
     showgrid="false"
     inkscape:zoom="70.533901"
     inkscape:cx="8.1804634"
     inkscape:cy="10.42761"
     inkscape:window-width="1920"
     inkscape:window-height="991"
     inkscape:window-x="-9"
     inkscape:window-y="-9"
     inkscape:window-maximized="1"
     inkscape:current-layer="svg7" />
  <defs
     id="defs3">
    <style
       id="current-color-scheme"
       type="text/css">.ColorScheme-Text {
        color:#363636;
      }</style>
    <clipPath
       clipPathUnits="userSpaceOnUse"
       id="clipPath1857">
      <path
         id="path1859"
         style="fill:#ff0000;fill-opacity:1;fill-rule:nonzero;stroke:none"
         d="m 9.7558594,9.1582031 v 0.7714844 c 0.022177,-0.00599 0.044857,-0.010735 0.066406,-0.017578 0.07158,0.1308665 0.072702,0.079275 0.0625,0.1738285 -0.00239,0.02222 -0.00643,0.04408 -0.00586,0.06641 6.434e-4,0.0251 -0.0032,0.04702 -0.00781,0.06641 0.01752,0.02709 0.032599,0.05567 0.050781,0.08203 -0.011104,0.03209 -0.017665,0.05189 -0.023437,0.06641 -0.00169,0.01322 -0.00403,0.0263 -0.00781,0.03906 -0.00632,0.02132 -0.08163,0.122535 -0.082031,0.123047 -0.00264,0.0033 -0.00547,0.0075 -0.00781,0.01172 0.00945,0.0289 0.00319,0.02069 0,0.09961 -0.00136,0.002 -0.00258,0.0039 -0.00391,0.0059 v 0.123047 0.09375 0.02344 c 0,0.0041 0.00175,0.008 0,0.01172 -0.00146,0.0031 -0.00241,0.0066 -0.00391,0.0098 0.01134,0.0031 0.023346,0.0079 0.033203,0.01563 0.00742,-0.01071 0.016021,-0.02054 0.023437,-0.03125 -0.00431,-0.02058 -0.00671,-0.0198 0.011719,-0.01563 -0.00371,0.0054 -0.00801,0.01027 -0.011719,0.01563 0.00197,0.0094 0.00367,0.02313 0.00391,0.04297 8.53e-5,0.0071 -1.229e-4,0.01435 0,0.02148 v 0.002 c 0.016514,0.02753 0.027344,0.06491 0.027344,0.113282 0,0.04409 0.00523,0.09044 -0.033203,0.126953 -0.01085,0.01031 -0.023538,0.01744 -0.037109,0.02344 0.034003,-0.01978 0.061132,-0.0448 0.039063,-0.06055 -0.00118,0.0099 -0.00505,0.0197 -0.00781,0.0293 -0.027784,-0.0042 -0.05713,-0.0046 -0.085937,-0.0059 v 0.05859 c 0.012399,-0.0048 0.024411,-0.0092 0.037109,-0.01367 -0.013415,0.0069 -0.026357,0.01162 -0.037109,0.01563 v 2.871094 c 0.025775,-0.04462 0.067319,-0.07456 0.1425781,-0.05274 0.1021605,0.02962 0.076489,0.156281 0.068359,0.224609 -0.00832,0.01121 -0.015307,0.02045 -0.021484,0.0293 0.059734,0.01568 0.1131605,0.09216 0.1054685,0.142579 -4.26e-4,0.0089 -0.0034,0.02526 -0.002,0.03516 0.0059,0.04254 0.01773,0.08351 0.0078,0.126953 -0.01328,0.02246 -0.02579,0.04589 -0.03906,0.06836 -4.24e-4,0.0018 -0.0016,0.0045 -0.002,0.0059 -0.004,0.01669 -0.01096,0.03299 -0.017578,0.04883 -0.00488,0.01167 -0.011798,0.02195 -0.017578,0.0332 -0.00556,0.01004 -0.014798,0.01817 -0.017578,0.0293 -0.00291,0.01166 0.0016,0.02509 0.00195,0.03711 0.0033,0.111852 3.376e-4,0.02506 0.00781,0.136719 0.0021,0.03134 0.00977,0.06453 0.00586,0.0957 -0.00292,0.0233 -0.017081,0.04249 -0.025391,0.06445 -0.00786,0.0078 -0.015773,0.01671 -0.023437,0.02539 h 5.707133 V 9.1582031 Z m 0.1621094,5.9726559 c -0.00312,0.01181 0.00193,0.02487 0.00391,0.03711 0.00235,-0.0035 0.00348,-0.0071 0.00391,-0.0098 0.00148,-0.0091 -0.00545,-0.03624 -0.00781,-0.02734 z" />
    </clipPath>
    <clipPath
       clipPathUnits="userSpaceOnUse"
       id="clipPath2021">
      <path
         id="path2023"
         style="fill:#ff0000;fill-opacity:1;fill-rule:nonzero;stroke:none"
         d="M 0.74023438,0.63867188 V 15.361328 H 7.5 c -7.622e-4,-0.08325 -0.00116,-0.166753 -0.00195,-0.25 C 7.49537,14.830274 7.49285,14.548633 7.49024,14.267578 7.48842,14.07207 7.48615,13.87715 7.48438,13.681641 7.48617,13.380207 7.4850098,13.078738 7.49024,12.777344 7.4939,12.566387 7.502761,12.355402 7.509771,12.144531 7.536894,11.329025 7.570488,10.513117 7.585943,9.6972656 c 0.00192,-0.1015877 0,-0.2030815 0,-0.3046875 0,-0.1122807 0.056571,-0.1679687 0.1132813,-0.1679687 0.05671,0 0.1132812,0.055688 0.1132812,0.1679687 0,0.101606 0.00192,0.2030997 0,0.3046875 -5.169e-4,0.02732 -0.00132,0.054692 -0.00195,0.082031 0.033004,0.00216 0.066813,0.0042 0.099609,0.00586 h 0.00195 c 0.037289,-0.00194 0.076112,-0.00298 0.1132812,-0.00586 1.14e-5,0.00585 -7.3e-6,0.011725 0,0.017578 0.00372,6.545e-4 0.00137,0.0051 0,0.00977 3.5e-6,0.0039 -1.9e-6,0.00782 0,0.011719 v 0.00195 c 0.00689,0.013211 0.016779,0.025192 0.025391,0.037109 0.036533,-0.0057 0.056839,-0.00679 0.058594,0.015625 6.161e-4,0.00787 -4.9e-6,0.018465 0,0.033203 3e-7,0.00489 -1.71e-5,0.00985 0,0.015625 3.16e-5,0.010639 4.8e-6,0.020876 0,0.03125 0.02598,0.047491 0.043027,0.087224 0.0625,0.1386724 0.00828,-0.01511 0.019932,-0.02636 0.035156,-0.02734 0.012116,-7.65e-4 0.023376,-8.27e-4 0.035156,0.002 0.026189,-0.01102 0.050796,-0.012 0.064453,0.0078 0.00398,0.0058 0.0055,0.0097 0.00391,0.01367 0.00793,0.0034 0.015512,0.0064 0.023437,0.0098 0.023828,-0.04226 0.04477,-0.08055 0.074219,-0.1347658 0.00677,-0.022672 0.014111,-0.043374 0.019531,-0.066406 0.010459,-0.044463 -0.00763,-0.027851 -0.011719,-0.025391 0.00416,-0.00737 0.02252,-0.035034 0.072266,-0.1132813 0.012065,-0.018977 0.02194,-0.055985 0.041016,-0.060547 0.00272,-6.516e-4 0.00664,-7.387e-4 0.00977,0 0.1039435,0.024549 0.1578894,0.041951 0.1816406,0.0625 l 0.00195,-0.00195 h 0.00195 c -4.207e-4,0.00124 2.061e-4,0.00265 0,0.00391 l 0.00195,0.00195 c 0.00459,0.00511 0.00626,0.01181 0.00781,0.017578 0.073865,-0.00734 0.1504697,-0.00395 0.21875,0.023437 0.025745,0.010328 -0.010271,0.052535 -0.039063,0.080078 0.00115,0.013465 0.00274,0.027574 0.00195,0.041016 -0.00227,0.038692 -0.00629,0.077185 -0.013672,0.1152351 -6.724e-4,0.0035 -0.00289,0.0064 -0.00391,0.0098 0.022935,-0.0088 0.04783,-0.01611 0.070312,-0.02148 0.019796,-0.034138 0.00237,-0.02533 0.083984,-0.042969 0.022029,0.00125 0.044377,0.00266 0.066406,0.00391 0.015134,0.00149 0.029747,0.00487 0.044922,0.00586 0.051014,0.00331 0.093696,-0.00203 0.140625,0.015625 0.013554,-0.019697 0.029276,-0.038994 0.042969,-0.058594 0.0073,-0.010449 0.011665,-0.018499 0.017578,-0.027344 -0.08916,0.014463 -0.1187157,0.026844 -0.1210938,-0.017578 h -0.00195 V 9.859375 c 0,-0.00329 -6.83e-5,-0.00654 0,-0.00977 v -0.0625 c -2.9e-6,-0.025822 -7e-7,-0.052303 0,-0.078125 0,-0.041104 -5.39e-5,-0.081944 0,-0.1230469 3.838e-4,-0.031363 -1.353e-4,-0.062387 0,-0.09375 4e-5,-0.040706 0.00237,-0.082332 0.00195,-0.1230469 -0.00573,-0.04305 -0.014709,-0.091414 0.00586,-0.1328125 0.0039,-0.00786 0.00854,-0.016353 0.013672,-0.023437 V 9.1679688 9.0546875 8.9375 8.6816406 c 0,-0.1488646 0.069664,-0.2289664 0.1445312,-0.2382812 0.00499,-6.21e-4 0.010613,0 0.015625,0 0.080201,0 0.1601563,0.079492 0.1601563,0.2382812 V 8.9375 9.0546875 9.1679688 9.2695312 c -0.00768,0.016029 -0.014329,0.032516 -0.021484,0.048828 3.837e-4,0.00279 -6.794e-4,0.00296 0,0.00781 0.00567,0.055078 0.00186,0.1108666 0.00195,0.1660156 -3.26e-5,0.03257 3.488e-4,0.065087 0,0.097656 -6.5e-6,0.014389 -3e-7,0.028671 0,0.042969 0.066248,0.00536 0.04762,0.209938 0.056641,0.25 0.0032,2.051e-4 0.00628,-1.639e-4 0.00977,0 0.00428,-0.00739 0.00994,-0.020827 0.017578,-0.042969 0.015754,-0.04567 0.00277,-0.00431 -0.013672,-0.1308594 0.00847,-0.025379 0.028243,0.047926 0.033203,0.074219 0.00667,0.035378 -0.00211,0.068319 -0.015625,0.099609 0.00848,9.27e-5 0.00949,0.00214 0.019531,0.00195 0.00664,0.02179 0.018591,0.042713 0.027344,0.064453 0.039699,-0.014874 0.082835,-0.024339 0.1230468,-0.037109 0.00224,0.00409 0.00376,0.00798 0.00586,0.011719 0.017177,-0.00979 0.035775,-0.01471 0.054687,-0.015625 0.026702,-0.00129 0.053515,0.00916 0.078125,0.025391 -0.00104,-0.025824 -3.868e-4,-0.049265 0.00391,-0.070313 -0.00509,-0.00199 -0.010584,-0.00378 -0.015625,-0.00586 0.00471,-0.041292 -0.018291,-0.096483 0.013672,-0.1230469 0.01508,-0.012533 0.036103,-0.02527 0.05664,-0.037109 l -0.002,-0.00195 c -0.029884,-0.02901 0.07554,-0.045364 0.117188,-0.044922 0.0053,5.61e-5 0.01028,0.00166 0.01563,0.00195 0.02135,-0.00147 0.04039,5.367e-4 0.05859,0.00781 0.0026,7.363e-4 0.0053,0.00114 0.0078,0.00195 0.09244,0.029287 0.144403,0.106953 0.189453,0.1992187 0.01226,0.02511 0.01669,0.053536 0.02539,0.080078 0.0072,0.029776 0.01606,0.060102 0.02344,0.089844 0.02665,-0.0847 0.05854,-0.1755039 0.08984,-0.2441404 0.01816,-0.039818 0.04198,-0.078532 0.0625,-0.1171875 0.01513,-0.019542 0.02588,-0.042837 0.04492,-0.058594 0.0267,-0.022088 0.05505,-0.043852 0.08789,-0.054687 0.0069,-0.014528 0.01423,-0.028627 0.02149,-0.042969 0.03188,-0.00669 0.06648,-0.03589 0.0957,-0.021484 0.105469,0.052 0.18553,0.1243394 0.253906,0.2089844 0.01285,-0.036058 0.02461,-0.072593 0.03516,-0.109375 0.0033,-0.011714 -0.01189,-0.030946 -0.002,-0.035156 0.06196,-0.022811 0.12664,-0.037072 0.191407,-0.050781 0.03434,-0.070275 0.06888,-0.1417806 0.07422,-0.1523438 0.03168,-0.062352 0.09981,-0.1874654 0.132813,-0.2402344 0.01517,-0.024271 0.03386,-0.04527 0.05078,-0.068359 0.04615,-0.033472 0.08978,-0.072235 0.138672,-0.1015625 0.01179,-0.00707 0.02539,-0.00438 0.03906,-0.00586 0.01822,-0.00197 0.03642,-0.00749 0.05469,-0.00781 0.0061,-1.067e-4 0.0135,0.001 0.01953,0.00195 0.145816,0.023693 0.11029,0.051647 0.177735,0.1992188 -0.0057,0.2730701 0.05059,0.5459713 0.03516,0.8183594 0.0171,0.010752 0.03482,0.023526 0.05469,0.042969 0.0217,0.021235 0.03108,0.051163 0.03516,0.082031 0.06111,0.05495 0.03924,0.06673 0.123046,0.173828 0.08867,0.113314 0.12301,0.141886 0.189454,0.212891 0.0041,-0.01098 0.0092,-0.02233 0.01367,-0.0332 v -0.002 c 6.01e-4,-0.01623 -0.0084,-0.04636 0.0078,-0.04687 0.0039,-1.32e-4 0.0078,1.1e-4 0.01172,0 0.0037,-0.0093 0.0083,-0.01797 0.01172,-0.02734 0.04362,-0.01272 0.150741,-0.07992 0.13086,-0.03906 -0.01977,0.04064 -0.07153,0.05084 -0.117188,0.06641 0.03019,-3.97e-4 0.05957,-0.0018 0.08984,0 0.0017,-0.0016 0.0042,-0.0023 0.0059,-0.0039 0.02451,0.0022 0.035,0.0011 0.04687,0.002 0.01693,-0.05264 0.05329,-0.08008 0.08984,-0.08008 0.05012,0 0.09961,0.04919 0.09961,0.148437 v 0.0078 l 0.06445,0.02734 c 0.0032,0.0035 0.01281,0.0077 0.0098,0.0098 -0.01013,0.0051 -0.0396,0.0049 -0.04687,0.0059 l 0.002,0.002 c 0.0636,0.01406 0.08717,0.0085 0.0957,0.002 5.84e-4,-0.0026 0.0014,-0.0052 0.002,-0.0078 0.0067,-0.02995 0.01185,-0.05977 0.01758,-0.08984 0.03466,0.01603 0.05167,-0.202764 0.123047,-0.183594 0.09549,0.02564 0.161036,0.118414 0.253906,0.152344 0.01992,0.0073 -0.0041,-0.04159 -0.0078,-0.0625 -6e-4,-0.0036 -0.0056,-0.01502 -0.0039,-0.01172 0.01902,0.03551 0.03586,0.0718 0.05469,0.107422 0.0023,0.02348 0.011,0.04689 0.0078,0.07031 -0.0094,0.07683 -0.05086,0.241729 -0.07227,0.330079 v 0.002 c 0.0023,0.0127 0.0022,0.03351 0.002,0.06055 0.01336,0.0035 0.0019,0.02731 0,0.04101 -1.72e-4,0.0013 1.74e-4,0.0026 0,0.0039 0.017,0.02313 0.03344,0.04578 0.04883,0.07031 9.3e-4,0.0046 -3.63e-4,0.0092 0.002,0.01367 0.143347,0.04312 0.155307,0.103142 0.189453,0.240234 -6e-4,0.0098 4.1e-4,0.0196 -0.002,0.0293 3.96e-4,0.0019 -3.8e-4,0.0039 0,0.0059 v 0.002 c 0.01408,0.07246 0.01665,0.155149 0.01563,0.166015 -0.0011,0.05868 0.0017,0.117211 -0.002,0.175781 -0.0028,0.04451 -0.01178,0.08859 -0.01758,0.132813 -0.0092,0.06959 -0.01701,0.137601 -0.02734,0.207031 -0.02173,0.146109 -0.04079,0.254453 -0.08984,0.400391 -0.01513,0.04501 -0.04025,0.08599 -0.06055,0.128906 -0.01242,0.01507 -0.02491,0.02967 -0.03711,0.04492 -0.0023,0.01014 -0.0041,0.02045 -0.0078,0.03125 -4.02e-4,0.0079 -0.0018,0.01554 -0.002,0.02344 -0.0035,0.0023 -0.0063,0.0054 -0.0098,0.0078 -6.51e-4,0.0015 -0.0013,0.0024 -0.002,0.0039 -0.0041,0.009 -0.0092,0.02258 -0.01367,0.0332 v 0.002 c -3.83e-4,0.04887 -5.87e-4,0.09758 0.002,0.146485 0.0046,0.09329 0.0049,0.186307 0.01367,0.279297 0.04646,0.490075 0.02359,-0.174309 0.05859,0.486328 0.0023,0.04301 10e-4,0.08595 -0.002,0.128906 0.08756,0.0035 0.174639,0.01487 0.261719,0.02344 0.09132,-0.04933 0.08742,-0.05495 0.208984,-0.08203 0.01583,-0.0035 0.03261,-2.7e-5 0.04883,0 0.04151,6.9e-5 0.08349,0.0017 0.125,0.002 0.0096,-0.01269 0.01989,-0.02507 0.03125,-0.03906 0.01046,-0.01289 0.02799,-0.02206 0.04687,-0.02539 0.01889,-0.0033 0.03836,6.82e-4 0.05078,0.01172 0.01735,0.01537 0.03156,0.03201 0.04492,0.05078 0.01653,-2.55e-4 0.03237,7.7e-5 0.04883,0 0.0019,-0.136757 0.0066,-0.273626 0.0098,-0.410156 -0.0018,-0.03042 -0.0012,-0.05974 -0.0059,-0.08984 -0.04247,-0.272502 -0.0059,0.154303 -0.04492,-0.232422 -0.0026,-0.02594 2.6e-5,-0.05204 0,-0.07813 -3.5e-5,-0.03545 1.25e-4,-0.07197 0,-0.107422 -6.9e-5,-0.0192 1.31e-4,-0.03744 0,-0.05664 -7e-4,-0.125604 -10e-4,-0.251384 0.002,-0.376953 -2.11e-4,-0.01621 0.0014,-0.03269 0,-0.04883 -0.006,-0.06626 -0.01504,-0.02472 -0.01563,-0.109375 -4.86e-4,-0.06987 0.02012,-0.143608 0.07227,-0.19336 -0.0023,-0.03079 2.42e-4,-0.0628 0,-0.09375 -10e-4,-0.128695 -0.0011,-0.08494 0,-0.158203 0.003,-0.06428 0.01,-0.128979 0.0098,-0.193359 -7.4e-5,-0.01088 10e-4,-0.02068 -0.002,-0.03125 -0.0056,-0.02374 -0.01554,-0.04723 -0.02344,-0.07031 -0.0051,-0.03864 -0.01595,-0.07625 -0.01563,-0.115234 7.4e-4,-0.08584 0.04014,-0.165058 0.08398,-0.236328 0.0099,-0.0161 0.02234,-0.03626 0.04102,-0.03906 0.01704,-0.0026 0.04182,0.04235 0.04492,0.02539 0.0063,-0.03417 -0.02079,-0.06647 -0.03125,-0.09961 -7.29e-4,-0.03344 -0.0027,-0.06615 -0.0039,-0.09961 -0.01216,-0.0044 -0.02525,-0.0085 -0.03711,-0.01367 -0.01491,-0.0065 -0.0086,-0.03092 -0.01172,-0.04687 -0.01503,-0.07691 -0.03285,-0.163782 0.04687,-0.226562 2.53e-4,-1.99e-4 0.02488,-0.0057 0.0332,-0.0078 -7.22e-4,-0.01552 -0.0019,-0.03134 -0.002,-0.04687 -4.5e-5,-0.01292 -0.004,-0.02707 -0.0059,-0.04101 -0.163719,-0.01198 -0.144031,-0.06278 -0.136719,-0.185547 0.0066,-0.02903 0.01281,-0.05857 0.01953,-0.08789 -0.01027,0.0013 -0.02135,0.0024 -0.04492,0.0059 -0.01237,-0.01188 -0.02495,-0.02305 -0.03711,-0.03516 0.03387,0.01482 0.06524,0.02077 0.08399,0.02344 0.0028,-0.0117 0.0044,-0.02374 0.0078,-0.03516 9.61e-4,-0.0032 0.0029,-0.0076 0.0039,-0.01172 -0.08235,-0.0577 -0.179175,-0.1469538 -0.132812,-0.02734 0.0022,0.0056 0.0046,0.01308 0.0059,0.01953 0.0095,0.0092 0.01796,0.01995 0.02734,0.0293 -0.0057,-0.0026 -0.01194,-0.0047 -0.01758,-0.0078 -0.0073,-0.0041 -0.0081,-0.01253 -0.0098,-0.02149 -0.01605,-0.01565 -0.03184,-0.03031 -0.04883,-0.04492 0.0062,0.0095 0.0099,0.01799 0.01172,0.02149 h -0.002 c -0.0078,-0.0084 -0.02295,-0.03118 -0.01172,-0.02344 -0.02296,-0.0355 -0.06151,-0.097008 -0.0332,-0.1035154 -0.0128,-0.082771 -0.0028,-0.037377 -0.0332,-0.1386718 -0.02154,-0.071866 -0.08158,-0.2345556 0.04492,-0.2597657 -0.117432,-0.090298 -0.05945,-0.2695312 0.177734,-0.2695312 h 0.07031 c -0.0026,-0.020026 -0.0045,-0.040861 -0.0059,-0.060547 -0.0014,-0.020824 -4.6e-4,-0.041613 0,-0.0625 -0.0064,-2.73e-4 1.13e-4,-0.013101 0,-0.019531 -1.09e-4,-0.00647 1.78e-4,-0.012997 0,-0.019531 v -0.025391 c -2.5e-5,-0.00754 -4e-4,-0.013992 0,-0.021484 2e-6,-0.037858 -3e-6,-0.075423 0,-0.1132813 -5.75e-4,-0.00582 -0.0015,-0.01168 -0.002,-0.017578 -0.0032,-0.039264 -0.0045,-0.055631 -0.0059,-0.076172 -0.0032,-1.087e-4 -0.0065,1.665e-4 -0.0098,0 -0.01769,-0.00101 -0.03501,-0.00237 -0.05273,-0.00391 -0.01869,-1.014e-4 -0.03801,-7.565e-4 -0.05664,-0.00195 -0.0038,5.91e-5 -0.0079,-2.047e-4 -0.01172,0 -0.0134,7.162e-4 -0.02575,0.00275 -0.03906,0.00586 -0.140485,0.043836 0.0411,0.00389 -0.207032,-0.1347656 -0.01505,-0.00841 -0.0088,0.02253 -0.0039,0.046875 0.0025,0.00408 0.0055,0.00748 0.0078,0.011719 9.71e-4,0.0018 -0.0037,0.0079 -0.0039,0.00586 -3.53e-4,-0.00422 -0.0027,-0.011596 -0.0039,-0.017578 -0.02219,-0.035557 -0.05105,-0.066883 -0.06836,-0.1054687 -0.02772,-0.046146 -0.02655,-0.044097 -0.0625,-0.1015625 -0.01574,-0.025176 -0.03572,-0.047574 -0.04883,-0.074219 -0.02145,-0.043596 -0.03915,-0.088732 -0.05469,-0.1347656 -0.0076,-0.022662 0.0099,-0.050118 0,-0.072266 0.003,-0.03382 0.0025,-0.069691 0.002,-0.1035156 -3.3e-4,-0.017953 -5.06e-4,-0.034832 -0.002,-0.052734 -10e-4,-0.012689 -0.0039,-0.024535 -0.0059,-0.037109 -0.0011,-0.021474 -8.06e-4,-0.042979 -0.002,-0.064453 0.0036,-0.072219 0.0015,-0.090909 0.01563,-0.171875 0.0036,-0.020735 0.0089,-0.040606 0.01563,-0.060547 0.0042,-0.012323 0.01728,-0.022153 0.01758,-0.035156 6.7e-4,-0.028611 -0.01507,-0.0554 -0.01367,-0.083984 0.0018,-0.03609 0.01554,-0.070216 0.02344,-0.1054688 0.04458,-0.082422 0.06342,-0.1216911 0.119141,-0.2050781 0.0097,-0.014554 0.01589,-0.038416 0.0332,-0.041016 0.01295,-0.00195 0.01414,0.042483 0.02344,0.033203 0.03547,-0.03554 -0.116261,-0.1456365 -0.05664,-0.1777344 -0.01596,-0.063315 0.03566,-0.1347656 0.162109,-0.1347656 h 0.451172 0.345704 0.408203 0.146484 V 0.63867188 Z M 14.183594,7.2871094 c -0.0025,0.00649 -0.0055,0.012944 -0.0078,0.019531 0.0025,-0.00208 0.0053,-0.00378 0.0078,-0.00586 2.76e-4,-0.00453 0.0016,-0.017902 0,-0.013672 z m 0.02734,0.056641 c -0.0092,6.123e-4 -0.02722,0.00255 -0.04883,0.00586 -9.69e-4,0.00304 -9.3e-4,0.00672 -0.002,0.00977 0.0078,-0.00115 0.02471,-0.012041 0.01953,-0.00781 -0.0097,0.00792 -0.01672,0.012916 -0.02344,0.017578 -0.0075,0.022983 -0.01487,0.044679 -0.02539,0.066406 -0.01093,0.022571 -0.03291,0.037763 -0.04687,0.058594 -0.03083,0.045993 -0.06868,0.1196309 -0.0957,0.1699219 1.01e-4,0.011785 -0.0057,0.024845 0,0.035156 0.0022,-0.00779 0.006,-0.031653 0.0059,-0.025391 -8e-4,0.04638 -0.0021,0.094585 -0.0078,0.140625 -0.0035,0.028094 -0.01463,0.054151 -0.01953,0.082031 -0.009,0.051301 -0.008,0.07891 -0.0098,0.1269531 0.0093,0.087812 0.01352,0.1752409 0.0078,0.2636719 0.0097,0.01634 -0.009,0.040023 0,0.056641 0.0065,0.011936 0.0209,0.018598 0.0293,0.029297 0.01439,0.018419 0.02658,0.038834 0.03906,0.058594 0.03088,0.048908 0.03862,0.064461 0.06445,0.1074219 0.01162,0.022169 0.02885,0.042599 0.04492,0.064453 0.0032,-0.033602 0.0071,-0.065912 0.01172,-0.1074218 0.0012,-0.00533 0.0026,-0.012034 0.0039,-0.017578 7.38e-4,-0.00768 0.0065,-0.054811 0.0059,-0.048828 -0.0011,0.018239 5.75e-4,0.020133 0.01563,-0.074219 0.0068,-0.042926 0.0032,-0.074172 0.01172,-0.1074219 -0.0014,-0.014179 -0.0031,-0.028778 -0.0039,-0.042969 -0.0011,-0.018841 -0.01052,-0.1641197 -0.0059,-0.1992187 0.0058,-0.042875 0.01824,-0.082712 0.02734,-0.125 0.03965,-0.029381 0.03085,-0.103746 0.03125,-0.1425782 4.84e-4,-0.046495 9e-4,-0.092183 0,-0.1386718 -0.0037,-0.1872269 -0.0087,-0.036731 -0.002,-0.1875 -0.0062,-0.019996 -0.02393,-0.040837 -0.02539,-0.060547 -1.92e-4,-0.00257 -4.34e-4,-0.00528 0,-0.00781 z M 9.3125,9.1542969 c -0.00266,0.0026 -0.00793,0.00614 -0.00977,0.00781 l -0.00391,0.011719 c 0.00516,-0.00602 0.00898,-0.013199 0.013672,-0.019531 z m 5.669922,0.080078 c -6.64e-4,0.00125 -0.0013,0.00266 -0.002,0.00391 0.0013,2.208e-4 0.0026,-2.418e-4 0.0039,0 -6.09e-4,-0.00131 -0.0014,-0.00258 -0.002,-0.00391 z m 0.40039,0.068359 c -0.0074,0.031387 -0.0405,0.026721 -0.123046,0.00391 -0.0016,0.014974 -0.0023,0.029948 -0.0039,0.044922 -0.0077,-0.00356 -0.0155,-0.00667 -0.02344,-0.00977 -5.48e-4,0.00135 -0.0014,0.00256 -0.002,0.00391 -0.003,0.0073 -0.01714,8.576e-4 -0.02344,-0.00391 -0.01503,-0.01133 -0.02758,-0.020608 -0.03906,-0.029297 -0.0093,0.00293 -0.01965,0.00563 -0.0293,0.00781 0.01779,0.015782 0.03521,0.031973 0.05078,0.048828 0.04219,-0.00585 0.08053,-0.00996 0.125,-0.00781 0.0094,7.1e-4 0.0208,-0.00196 0.0293,0.00195 0.02687,0.012305 0.05259,0.026415 0.07813,0.041016 v -0.082031 c -0.01177,-0.00547 -0.02389,-0.012065 -0.03906,-0.019531 z m -5.8242182,0.023437 c -0.00585,0.013231 -0.011099,0.026174 -0.017578,0.039063 0.00168,-0.00224 0.00443,-0.00343 0.00586,-0.00586 0.00642,-0.01091 0.010153,-0.022955 0.011718,-0.033203 z m 2.1562502,0.1347656 c -0.03366,0.064696 -0.06583,0.129834 -0.09766,0.1953125 -0.01706,0.0351 -0.03535,0.069625 -0.05078,0.1054688 -0.02833,0.065782 -0.05355,0.1327339 -0.08008,0.1992187 0.01562,-0.011095 0.0315,-0.020867 0.04883,-0.029297 0.01957,-0.00952 0.04277,0.013685 0.06445,0.015625 0.03205,0.00287 0.06352,-0.00154 0.0957,-0.00195 0.0074,-0.015986 0.01294,-0.033383 0.02149,-0.048828 0.006,-0.010863 0.01555,-0.022393 0.02539,-0.033203 0.0012,-0.043025 -0.0015,-0.087647 -0.0078,-0.1972656 -0.0027,-0.046272 -0.0098,-0.092485 -0.01367,-0.1386718 -0.0019,-0.022343 -0.0042,-0.0441 -0.0059,-0.066406 z M 10.693359,9.65625 c -0.01097,0.00617 -0.02158,0.011816 -0.03125,0.019531 -0.0093,0.0074 -0.0062,0.045268 0,0.035156 0.01121,-0.018293 0.02142,-0.035626 0.03125,-0.054687 z M 8.7773438,9.710937 c -0.015652,0.015496 -0.035356,0.027297 -0.050781,0.042969 0.00971,-0.019505 0.040163,-0.035704 0.050781,-0.042969 z m 2.1484372,0.042969 c -0.04942,0.035865 -0.107049,0.063702 -0.144531,0.1113282 -0.04498,0.057156 0.01148,0.032927 0.0625,0.00195 -0.0083,-0.049973 0.0398,-0.059687 0.07031,-0.072266 0.0042,-0.01334 0.0087,-0.027076 0.01172,-0.041016 z m 3.423828,0.035156 c -0.0085,0.00792 -0.01853,0.01782 -0.03125,0.03125 0.0016,0.00696 0.0017,0.015591 0.0039,0.027344 0.0106,-0.01756 0.02149,-0.034712 0.03125,-0.052734 -0.0014,-0.00159 -0.0024,-0.00432 -0.0039,-0.00586 z m -3.447265,0.029297 c -0.0028,7.363e-4 -0.0081,0.00153 -0.01367,0.00391 -0.004,0.00712 -0.0076,0.014446 -0.01172,0.021484 0.02298,-0.016045 0.03835,-0.028764 0.02539,-0.025391 z M 8.9121094,9.851562 c -5.331e-4,0.00732 -4.402e-4,0.014149 0,0.021484 0.00276,-0.00418 0.00565,-0.00914 0.00781,-0.013672 0.0016,-0.00337 -0.00754,-0.011567 -0.00781,-0.00781 z m 6.5097656,0.027344 c -0.01408,0.00577 -0.02854,0.00944 -0.04297,0.013672 3.55e-4,0.022091 -9.28e-4,0.044176 0,0.066406 0.002,0.049057 0.0052,0.095403 0,0.142578 0.0086,-0.01117 0.01943,-0.02248 0.03125,-0.03516 0.0036,-0.0039 0.0075,-0.007 0.01172,-0.0098 z m -4.570313,0.013672 c -0.0024,0.00457 -0.0056,0.009 -0.0078,0.013672 -0.01981,0.042692 -0.05316,0.12904 -0.07813,0.201172 0.01921,0.0023 0.03956,0.0044 0.05859,0.0078 -2.43e-4,-0.0047 -0.0018,-0.009 -0.002,-0.01367 0.0458,-0.01621 0.09151,-0.03619 0.136718,-0.05469 -0.0094,-0.0159 -0.01759,-0.03315 -0.02734,-0.048828 C 10.9082,9.960416 10.8696,9.93241 10.85152,9.8925652 Z M 9.09375,10.216797 c -0.00146,0.0037 -0.00443,0.0065 -0.00586,0.0098 0.00829,-0.0032 0.017332,-0.0043 0.025391,-0.0078 -0.00653,-5.7e-4 -0.013007,-0.0013 -0.019531,-0.002 z m 5.214844,0.0039 c -0.005,0.0081 -0.01,0.01707 -0.01172,0.02149 h 0.002 c 0.002,-0.0042 0.0063,-0.01458 0.0098,-0.02149 z m 0.835937,0.107422 c -0.0012,0.0014 -0.0027,0.0025 -0.0039,0.0039 v 0.002 c 0.0039,0.0038 0.0079,0.0079 0.01172,0.01172 -0.0021,-0.0059 -0.0031,-0.01086 -0.0059,-0.01758 z m 0.0078,0.01758 c 0.0025,0.0073 0.0062,0.01501 0.0078,0.02149 -9.11e-4,-8.15e-4 -0.0033,-0.0012 -0.0039,-0.002 -0.0076,-0.0085 -0.01229,-0.02012 -0.01563,-0.03125 -0.0085,0.0095 -0.01693,0.01819 -0.02539,0.02734 0.01543,9.94e-4 0.03088,0.002 0.04492,0.0078 0.0034,0.0014 0.0065,0.0022 0.0098,0.0039 0.0038,0.0026 0.0061,0.0058 0.0098,0.0078 0.0018,0.0011 0.0041,-7.77e-4 0.0059,0.002 0.0013,5.82e-4 0.0031,0.0017 0.0039,0.002 v -0.002 c -0.01162,-0.01277 -0.02486,-0.02495 -0.03711,-0.03711 z m -2.66211,0.04297 c -0.0013,6.38e-4 -0.0027,0.0013 -0.0039,0.002 -0.0026,0.0014 -0.0087,0.0072 -0.0059,0.0078 0.0024,5.4e-4 0.0035,0.0014 0.0059,0.002 0.0016,-0.0038 0.0023,-0.0079 0.0039,-0.01172 z m 0.84375,0.05078 c 0.0036,-0.01131 -0.01574,0.01834 -0.02344,0.02734 -7.22e-4,0.0032 -0.0012,0.0066 -0.002,0.0098 0.01046,-0.007 0.01962,-0.01895 0.02539,-0.03711 z m -3.740234,0.5 c -0.00264,3.41e-4 -0.00637,-3.01e-4 -0.013672,0.002 -5.333e-4,0.0013 -0.00143,0.0026 -0.00195,0.0039 0.00562,-0.0019 0.010477,-0.0041 0.015625,-0.0059 z m -0.6757812,0.125 c -0.00629,0.0059 -0.012893,0.01345 -0.017578,0.02539 -0.00218,0.0056 0.00715,0.001 0.013672,-0.0059 v -0.002 c 0.00143,-0.0068 0.00239,-0.0104 0.00391,-0.01758 z m 0.7167968,0.101563 c -0.00404,0.0045 -0.00713,0.0099 -0.011719,0.01367 -0.025878,0.02128 -0.079809,0.01151 -0.109375,0.0098 -0.014734,-0.0036 -0.02989,-0.0038 -0.044922,-0.0039 -0.00567,0.01591 -0.011342,0.03125 -0.017578,0.04687 -0.029494,0.07394 -0.033067,0.04062 -0.027344,0.07422 v 0.002 c -0.00665,0.0284 -0.011461,0.05667 -0.025391,0.08203 -0.048407,0.08814 -0.1509419,0.03586 -0.2167969,-0.0098 -0.012642,-0.0087 -0.015303,-0.03971 -0.015625,-0.07031 -0.00148,0 -0.00234,0.0023 -0.00391,0.002 -0.032812,-0.0072 -0.064525,-0.01994 -0.09375,-0.03711 -8.37e-4,0.0045 -10e-4,0.0092 -0.00195,0.01367 -0.0046,0.0214 -0.020337,0.03862 -0.029297,0.05859 -0.00276,0.0061 -0.00432,0.01295 -0.00586,0.01953 -0.04754,0.0316 -0.09006,0.07495 -0.1445312,0.0918 -0.022556,0.007 -0.042972,-0.0195 -0.064453,-0.0293 -0.00347,-0.0016 -0.069997,-0.03063 -0.070312,-0.03125 -0.0022,-0.0043 -0.00391,-0.0078 -0.00586,-0.01172 -0.0046,0.04482 -0.00948,0.08959 -0.013672,0.134765 -5.8e-4,0.04537 5.786e-4,0.09135 0,0.136719 -1.917e-4,0.01494 -2.848e-4,0.02996 0,0.04492 0.064701,0.01227 0.1013464,0.04581 0.015625,0.109375 -0.048688,0.0201 -0.095471,0.04756 -0.1445313,0.06641 0.031744,0.0042 0.063785,0.0084 0.089844,0.02539 0.052605,0.03439 -0.36744,0.03471 -0.1914063,-0.08008 -0.00836,-0.0177 -0.016209,-0.03591 -0.021484,-0.05469 -0.00634,-0.02259 -0.012581,-0.04569 -0.017578,-0.06836 -0.040048,0.04999 -0.081134,0.100159 -0.1269531,0.144531 -0.024048,0.02328 -0.053641,0.02896 -0.083984,0.0293 v 0.09375 0.201172 0.142578 c 0,0.224561 -0.2265625,0.224561 -0.2265625,0 v -0.142578 -0.201172 -0.345703 -0.05274 c -5.802e-4,-0.0055 -0.0014,-0.01248 -0.00195,-0.01758 h -0.00195 c -0.00225,-0.0025 -0.00353,-0.0054 -0.00586,-0.0078 -0.011977,-0.025 -0.027699,-0.05009 -0.037109,-0.07617 -0.0088,-0.02441 -0.012188,-0.04883 -0.017578,-0.07422 -0.00857,-0.04035 -0.018099,-0.0805 -0.025391,-0.121093 -0.019377,0.0011 -0.039224,3.4e-5 -0.058594,0.002 -0.00699,0.06613 -0.019637,0.184905 -0.021484,0.203125 2.607e-4,0.0092 -8e-7,0.01813 0,0.02734 1e-7,0.0043 0.00429,0.01365 0,0.01367 h -0.00195 c -0.00226,0.02722 -0.01555,0.01426 -0.085937,0.0039 -0.00293,2.51e-4 -0.00501,-2.69e-4 -0.00781,0 -0.0072,0.209792 -0.014509,0.419189 -0.021484,0.628906 -0.00701,0.210917 -0.017824,0.421811 -0.021484,0.632812 -0.00518,0.299301 -0.00411,0.599097 -0.00586,0.898438 0.00157,0.172852 0.00417,0.344918 0.00586,0.517578 0.00717,-1.11e-4 0.014309,-1.43e-4 0.021484,0 0.00904,-0.03733 0.036728,-0.05918 0.070313,-0.06641 0.034872,-0.07849 0.066984,-0.112036 0.1640624,-0.125 0.018635,-0.0024 0.03873,-1.28e-4 0.056641,0.0059 0.04658,0.01487 0.08958,0.03796 0.1347656,0.05664 0.025139,0.01162 0.067192,0.02792 0.1054687,0.04883 0.00996,-0.0022 0.018981,-0.0076 0.029297,-0.0078 0.059861,-0.0014 0.1202062,0.03256 0.1328125,0.0918 0.00138,-3.48e-4 0.00252,-0.0017 0.00391,-0.002 0.052139,-0.0111 0.056246,-0.0085 0.095703,-0.002 0.022509,-0.0114 0.046088,-0.02084 0.070312,-0.02344 0.00744,-7.97e-4 0.01398,-3.62e-4 0.021484,0 0.01818,8.88e-4 0.033256,0.0075 0.042969,0.01953 0.00518,-8.91e-4 0.010359,-1.3e-5 0.015625,0 0.043744,10e-5 0.053795,0.0058 0.085937,0.01953 0.02478,0.01041 0.04957,0.02041 0.074219,0.03125 h 0.048828 0.021484 c 0.00399,-0.0021 0.00776,-0.0037 0.011719,-0.0059 0.06115,-0.0057 0.052709,-0.0093 0.109375,0.002 0.00516,10e-4 0.00865,0.0023 0.013672,0.0039 h 0.039063 c 0.0155,2e-6 0.031375,-3e-6 0.046875,0 0.034875,5e-6 0.070594,3.2e-5 0.1054687,0 0.010417,1.39e-4 0.02084,-8.2e-5 0.03125,0 0.00979,-4e-6 0.01951,2e-6 0.029297,0 0.00175,-3.1e-5 0.0042,2.9e-5 0.00586,0 h 0.00195 c 0.00215,-0.0133 0.00454,-0.02271 0.00586,-0.0293 0.037173,-0.07958 0.042589,-0.112308 0.1425781,-0.164062 0.01127,-0.0059 0.025491,-0.01 0.039063,-0.0098 0.013572,2.99e-4 0.026565,0.0047 0.037109,0.01172 0.054486,0.03649 0.080977,0.06291 0.091797,0.0918 0.015436,-0.0021 0.031183,-0.0055 0.046875,-0.0039 0.036277,-0.001 0.052355,-0.0011 0.072266,0 0.022967,-0.05589 0.06314,-0.102284 0.1445313,-0.08398 0.00503,-0.148347 0.080652,-0.222656 0.1582034,-0.222656 0.05276,0 0.10296,0.03729 0.132812,0.105468 0.02942,0.0014 0.05862,0.0045 0.07422,0.0059 0.01472,0.0028 0.02976,0.01515 0.04297,0.0078 -0.0062,-0.0034 -0.02652,-0.0098 -0.02539,-0.01758 0.0017,-0.0121 0.02215,-0.01143 0.03125,-0.01953 0.02707,0.0019 0.01225,-0.0243 0.02149,-0.0332 0.02796,-0.02733 0.05699,-0.05185 0.08594,-0.07813 0.05225,-0.03675 0.05421,-0.03534 0.09766,-0.07227 0.0059,-0.005 0.01058,-0.01233 0.01758,-0.01563 0.05186,-0.02437 0.104213,-0.04917 0.158203,-0.06836 0.01296,-0.0046 0.02558,-0.0069 0.03906,-0.0098 0.0016,-0.0057 0.0053,-0.01913 0.0059,-0.01953 0.06416,-0.04266 0.153336,-0.01647 0.228516,-0.0332 0.0071,-0.0016 -0.01973,-0.0076 -0.01563,-0.01367 0.0044,-0.0066 0.01554,0.0033 0.02344,0.0039 0.0065,5e-4 0.01303,-0.0016 0.01953,-0.002 0.0033,-3.11e-4 0.0064,3.02e-4 0.0098,0 v -0.002 c 0.04065,-0.02467 0.08342,-0.04724 0.125,-0.07031 0.02814,-0.0023 0.05584,-0.0036 0.08398,-0.0059 0.0099,-8.18e-4 0.0192,-0.0021 0.02734,-0.002 0.25258,0.0048 -0.305735,0.461229 -0.03125,0.322265 0.0051,-0.0026 0.01028,-0.0052 0.01563,-0.0078 -0.0034,0.0037 -0.0057,0.0069 -0.0098,0.0098 -0.106373,0.07508 -0.128196,0.07417 -0.234375,0.07617 -0.01428,-9.45e-4 -0.02867,-0.0011 -0.04297,-0.002 -0.02145,0.01593 -0.04453,0.03112 -0.06836,0.04297 -0.02366,0.01173 -0.05049,0.01138 -0.07617,0.01758 -0.01427,-2.17e-4 -0.0296,-0.005 -0.04297,0 -0.01339,0.005 -0.02024,0.0202 -0.03125,0.0293 -0.05262,0.04361 -0.04688,0.03693 -0.09375,0.06836 -0.0659,0.03939 0.0078,-0.0095 -0.07226,0.07226 -0.0027,0.0028 -0.0069,0.005 -0.0098,0.0078 0.102816,-5.7e-5 0.205907,-5.9e-5 0.308594,0 0.04488,9e-5 0.08794,4e-6 0.132812,0 0.06391,2e-6 0.12945,0 0.19336,0 h 0.189453 0.251953 0.414062 0.08594 c 0.02013,-0.02009 0.01996,-0.01846 0.06055,-0.0625 0.01499,-0.01626 0.02926,-0.03341 0.04297,-0.05078 2e-6,-0.06711 2e-6,-0.134064 0,-0.201172 -5e-5,-0.245449 7e-6,-0.490878 0,-0.736328 -0.02582,-0.02158 -0.03695,-0.04006 -0.04688,-0.0625 v -0.002 c -0.01794,-0.0069 -0.02381,-0.03098 -0.02148,-0.05469 -0.0018,-0.0055 -0.0037,-0.0095 -0.0059,-0.01563 -0.01013,0.0035 -0.01,0.001 -0.002,-0.0098 -0.0057,-0.03567 -0.01297,-0.07148 -0.01563,-0.107422 -4.06e-4,-0.0055 1.8e-4,-0.009 0,-0.01367 -0.02696,-0.02916 -0.05423,-0.06086 -0.07617,-0.08789 -0.189435,-0.243123 -0.368012,-0.495568 -0.517578,-0.765625 -0.07013,-0.129196 -0.113589,-0.209006 -0.158203,-0.294922 -0.0256,0.102613 -0.04382,0.179694 -0.08789,0.205078 -0.04499,0.09417 -0.472215,0.499664 -0.283203,0.02148 0.01251,-0.03164 0.03951,-0.04797 0.07226,-0.05664 -0.02093,-0.0089 -0.04367,-0.01967 -0.06836,-0.03125 -0.0084,0.0016 -0.01781,0.0035 -0.02539,0.0059 2.7e-4,-0.0047 -1.6e-5,-0.01206 0,-0.01758 -0.0021,-10e-4 -0.0037,4.58e-4 -0.0059,-0.002 -0.0059,-0.0028 -0.003,-0.01526 0.0059,-0.0332 -0.0011,-0.01823 -0.0038,-0.03861 -0.0059,-0.05859 -0.0041,0.007 -0.0082,0.01408 -0.01172,0.01953 l -0.002,-0.002 c -0.0339,0.05276 -0.06696,0.122847 -0.121094,0.111328 -0.04801,-0.01021 -0.0793,-0.04951 -0.107422,-0.09375 -0.0224,0.0065 -0.04409,0.01267 -0.06641,0.01563 -0.0012,0.02524 -0.0041,0.05171 -0.01758,0.07227 -0.01077,0.01643 -0.138294,0.172307 -0.208984,0.123047 -0.05303,-0.03695 -0.09056,-0.06091 -0.117188,-0.08008 -0.01797,0.0049 -0.03974,0.0068 -0.06445,0.0078 -0.06328,0.0025 -0.126534,-0.0552 -0.152344,-0.117187 0.003,0.475775 -0.0057,0.952191 -0.05469,1.425781 -0.01212,0.117298 -0.03004,0.234583 -0.04492,0.351562 -0.010408,0.05933 -0.01983,0.118595 -0.03125,0.177735 -0.025877,0.134012 -0.07646,0.08221 -0.265625,-0.04102 -0.018215,-9.53e-4 -0.036494,6.94e-4 -0.054687,-0.002 -0.00461,-2.9e-4 0.0024,-0.0093 0.00391,-0.01367 8.075e-4,-0.0045 0.00115,-0.0091 0.00195,-0.01367 -0.00183,-0.0012 -0.00205,-0.0027 -0.00391,-0.0039 -0.00807,-0.0051 0.00419,-0.03803 0.017578,-0.06836 0.00453,-0.02551 0.00914,-0.05067 0.013672,-0.07617 0.014358,-0.111927 0.031298,-0.223699 0.042969,-0.335938 0.052425,-0.504093 0.059957,-1.011297 0.054687,-1.517578 -0.0014,-0.134131 -0.00535,-0.268225 -0.00781,-0.402344 -0.01738,0.0076 -0.025129,0.0085 -0.03125,0.0098 0.010064,-0.005 0.020416,-0.0081 0.03125,-0.01172 -3.234e-4,-0.01757 3.412e-4,-0.03516 0,-0.05273 -0.046933,-0.0019 -0.094733,-0.0027 -0.1367188,-0.01953 z m 1.4335934,0.673828 c 0.109638,0.04654 0.172679,0.05719 0.210938,0.03516 0.004,-0.0085 0.0068,-0.01502 0.0039,-0.01758 -0.01353,-0.01197 -0.02465,-0.02056 -0.03711,-0.03125 -0.05934,0.0047 -0.126232,1.18e-4 -0.177735,0.01367 z M 8.5019401,11.82421 c -4.548e-4,0.01302 -2.463e-4,0.0257 0.00977,0.03125 0.00251,0.0014 0.00522,0.0027 0.00781,0.0039 -5.708e-4,-0.0013 -0.00135,-0.0027 -0.00195,-0.0039 -0.00508,-0.0099 -0.01085,-0.02113 -0.015625,-0.03125 z m 0.017578,0.03516 c 0.00658,0.01539 0.010425,0.03988 0.025391,0.03711 0.019934,-0.0037 0.039711,-0.01032 0.058594,-0.01758 -0.028809,-0.0038 -0.058536,-0.0076 -0.083984,-0.01953 z m 0.3789063,-0.691406 c -0.00968,0.01114 -0.018534,0.02247 -0.03125,0.03711 0.00737,0.0014 0.013684,0.0031 0.019531,0.0059 0.00128,6.09e-4 0.00262,0.0014 0.00391,0.002 0.00219,-0.01167 0.00517,-0.03141 0.00781,-0.04492 z m 1.7187506,0.02148 c 0.0026,0.02789 0.0054,0.05597 0.0078,0.08399 0.0048,-0.02739 0.0066,-0.03874 0.0098,-0.05664 -0.0061,-0.0088 -0.01203,-0.0182 -0.01758,-0.02734 z m -2.5781256,0.01953 c -0.00989,6.62e-4 -0.019528,1.47e-4 -0.029297,0.002 0.011041,0.0069 0.028495,0.02416 0.035156,0.02734 l 0.00195,-0.002 c -0.00171,-0.0095 -0.00437,-0.01835 -0.00781,-0.02734 z m 5.3144536,0.0957 c 5e-6,0.002 -6e-6,0.0039 0,0.0059 0.0044,5.69e-4 0.0078,3.14e-4 0.0098,0 v -0.002 c -0.0037,-0.0021 -0.0063,-0.0019 -0.0098,-0.0039 z m -5.0527349,0.103515 c -0.020788,0.0046 -0.032737,0.0041 -0.048828,0.0059 v 0.183594 c 7.793e-4,0.0013 0.0012,0.0026 0.00195,0.0039 0.029114,-0.03829 0.060327,-0.0753 0.089844,-0.113281 0.017914,-0.02305 0.019072,-0.02294 0.033203,-0.04101 -0.027547,-0.0084 -0.055287,-0.01991 -0.076172,-0.03906 z m 2.3730469,0.242188 c -0.0052,8.53e-4 -0.01042,0.0011 -0.01563,0.002 4.24e-4,0.0065 0.0016,0.01303 0.002,0.01953 0.0091,8.9e-4 0.01828,0.0013 0.02734,0.002 -0.0048,-0.0077 -0.0086,-0.01619 -0.01367,-0.02344 z m 0.320313,0.0039 c -0.0017,0.0037 -0.0022,0.008 -0.0039,0.01172 -0.0021,0.0045 -0.0067,0.0086 -0.0098,0.01367 0.008,0.0099 0.02127,0.01802 0.03516,0.01562 0.0056,-0.0077 0.01328,-0.0155 0.01953,-0.02344 -0.01862,-0.0096 -0.03148,-0.01529 -0.04101,-0.01758 z m -2.7187505,0.01367 c 0.00287,0.0038 0.0089,0.01009 0.017578,0.02148 0.02018,-0.0042 0.02081,-0.0049 -0.017578,-0.02148 z m 1.8300785,0.0332 c -5.2e-4,0.0012 -0.0015,0.0028 -0.002,0.0039 0.01486,0.01263 0.04214,0.03714 0.05078,0.04297 v -0.002 c -0.01228,-0.01827 -0.03181,-0.03062 -0.04883,-0.04492 z m 0.666015,1.925781 c -0.0081,0.001 -0.018,0.0034 -0.02344,0.0039 -7.56e-4,0.0026 -0.0012,0.0034 -0.002,0.0059 0.01161,-0.0025 0.02391,-0.0041 0.03516,-0.0078 0.0052,-0.0018 -0.0017,-0.003 -0.0098,-0.002 z m 0.236328,0.0078 c -0.0029,-0.0026 -0.01237,0.04926 -0.0332,0.183593 0.0041,-0.0021 0.0079,-0.0051 0.01172,-0.0078 0.0098,-0.0071 0.02689,-0.170848 0.02148,-0.175781 z m -1.0390621,0.04297 c -0.035158,0.0013 -0.070276,0.0022 -0.1054688,0.002 0.030141,0.08035 0.060599,0.126171 0.1015626,0.0078 0.00118,-0.0034 0.0027,-0.0064 0.00391,-0.0098 z m 4.2460941,0.333985 -0.002,0.002 c -0.0014,0.0032 -0.0026,0.0066 -0.0039,0.0098 2.98e-4,0.0024 0.0012,0.0028 0.002,0.0078 0.0013,-0.0044 0.0016,-0.01252 0.0039,-0.01953 z m -4.8046879,0.162109 c -0.00151,0.0017 -0.00246,0.0039 -0.00391,0.0059 0.00114,0.0021 0.00287,0.0039 0.00391,0.0059 4.396e-4,-0.0038 -3.215e-4,-0.008 0,-0.01172 z m -0.9785156,0.05859 c -2.127e-4,0.005 0.00281,0.0084 0.00195,0.01367 -4.277e-4,0.0026 -0.00144,0.0052 -0.00195,0.0078 v 0.002 c -5.351e-4,0.0026 -0.00134,0.0052 -0.00195,0.0078 0.00455,0.0052 0.00907,0.01045 0.013672,0.01563 0.00102,-0.01174 0.00617,-0.02202 0.013672,-0.0293 -0.00874,-0.0054 -0.016848,-0.012 -0.025391,-0.01758 z m -0.3945312,0.03125 c 1.133e-4,0.01058 -5.66e-4,0.0209 -0.00195,0.03125 0.00782,-0.0045 0.015651,-0.0089 0.023438,-0.01367 0.00441,-9.01e-4 0.00916,-3.96e-4 0.013672,-0.002 -0.01376,-0.0064 -0.024811,-0.01117 -0.035156,-0.01563 z m -0.00391,0.04102 c 0.0049,0.003 0.00709,0.006 0.013672,0.0098 0.0063,0.0037 0.027924,0.0093 0.021484,0.0059 -0.011429,-0.0059 -0.022551,-0.01649 -0.035156,-0.01562 z m 7.3886717,0.04492 c -0.01298,0.0457 -0.0279,0.09053 -0.04883,0.136719 -0.01975,0.0436 -0.04841,0.0835 -0.07227,0.125 -0.06788,0.06183 -0.0823,0.09396 -0.18164,0.101563 -0.0081,6.24e-4 -0.01674,-4.05e-4 -0.02539,0 -0.0011,4.17e-4 -0.0027,0.0016 -0.0039,0.002 -0.007,0.0018 -0.01569,0.002 -0.0293,0.002 -0.0012,0.0097 -0.0195,-7.5e-5 -0.0293,0 -0.004,3.1e-5 -0.0078,-2e-5 -0.01172,0 -0.02377,0.0016 -0.04699,1.43e-4 -0.07031,0 -0.006,0.0034 -0.0099,0.0063 -0.01953,0.01172 -0.0088,0.005 -0.03344,0.0237 -0.02734,0.01563 0.0084,-0.01118 0.01496,-0.01959 0.02148,-0.02734 -0.01232,-3.69e-4 -0.02467,7.54e-4 -0.03711,0 -0.0097,0.0098 -0.02256,0.0204 -0.03906,0.0332 -0.01287,0.01 -0.02613,0.01938 -0.03906,0.0293 -3.24e-4,0.0019 3.61e-4,0.0039 0,0.0059 -0.0031,0.0165 -0.01655,0.02671 -0.03125,0.03711 -0.0081,0.01352 -0.02679,0.03639 -0.02734,0.02148 -0.0016,0.0016 -0.0043,0.0024 -0.0059,0.0039 -0.0045,0.007 -0.0088,0.01425 -0.01563,0.02344 -0.01835,0.02452 -0.0385,0.04917 -0.05859,0.07226 0.0013,0.0033 -5.9e-4,0.0081 -0.0039,0.01367 0.0043,0.03522 0.006,0.07236 0,0.101563 0.114468,-0.01008 -0.03487,0.08416 -0.119141,0.128906 -0.0068,0.01934 -0.01479,0.03802 -0.02344,0.05664 -6.7e-5,0.0046 7.3e-5,0.0091 0,0.01367 -6.2e-5,0.0038 -0.0036,0.0042 -0.0078,0.0039 -0.03299,0.06462 -0.07379,0.108116 -0.09766,0.05078 -0.07351,0.01474 -0.193597,0.05114 -0.248047,-0.01953 -0.0083,-0.01071 -0.01159,-0.02271 -0.01563,-0.03516 -0.01955,2.19e-4 -0.03908,-2.26e-4 -0.05859,0 -5.31e-4,0.0046 -0.002,0.0094 -0.002,0.01367 3.68e-4,0.03393 -0.0035,0.06313 -0.0098,0.08984 h 1.337891 z m -0.875,0.837891 c 0.0011,-0.0031 -3.45e-4,-0.0067 0.002,-0.0098 -0.006,0.0027 -0.01693,0.009 -0.02539,0.01367 v 0.0039 c 0.0088,-0.0034 0.0062,0.0013 0.02344,-0.0078 z m 0.002,-0.0098 c 0.03059,-0.01349 0.03743,-0.01083 0.04297,-0.03516 -0.01298,0.0083 -0.02581,0.01731 -0.03906,0.02539 -0.001,0.0032 -0.0028,0.0065 -0.0039,0.0098 z m 0.04297,-0.03516 c 0.02204,-0.01412 0.04427,-0.0286 0.06055,-0.04883 0.007,-0.0087 0.01086,-0.02157 0.01367,-0.03516 -0.01521,0.0013 -0.03324,0.0024 -0.05859,0.0078 -0.0081,0.04136 -0.01253,0.06261 -0.01563,0.07617 z m 0.185547,-0.320312 c 0.0036,-0.006 0.0052,-0.01099 0.002,-0.0078 -0.0074,0.0066 -0.01221,0.01193 -0.01758,0.01758 0.0048,-0.0034 0.01077,-0.0063 0.01563,-0.0098 z m 0.46289,-0.310547 c 8.85e-4,0.0098 -6.75e-4,0.01955 0.002,0.0293 7.37e-4,0.0084 0.0049,-0.01849 0,-0.02539 -8.19e-4,-0.0011 -0.0011,-0.0028 -0.002,-0.0039 z m -0.808593,0.746093 c -0.0045,0.0038 -0.0068,0.0055 -0.01172,0.0098 -0.01286,0.01115 0.03486,0.0037 0.04883,-0.0098 -0.01237,3e-6 -0.02474,0 -0.03711,0 z m -1.509766,0.04883 c -0.0041,0.0062 -0.0079,0.01314 -0.01172,0.01953 0.0025,-0.002 0.0053,-0.0038 0.0078,-0.0059 0.0034,-0.0028 0.0064,-0.01737 0.0039,-0.01367 z m -2.716797,0.02539 v 0.0059 c 0,0.01074 -7e-6,0.01305 0,0.02344 h 0.0078 c -0.0025,-0.0083 -0.0031,-0.01559 -0.0039,-0.02344 -0.0013,-0.0019 -0.0027,-0.0039 -0.0039,-0.0059 z" />
    </clipPath>
  </defs>
  <path
     class="ColorScheme-Text"
     d="m 12.695441,9.157341 c -1.623911,0 -2.940347,1.345336 -2.940347,3.004896 0,1.659565 1.316436,3.004901 2.940347,3.004901 1.623913,0 2.940349,-1.345336 2.940349,-3.004901 0,-1.65956 -1.316436,-3.004896 -2.940349,-3.004896 z m -0.42005,0.858541 h 0.8401 v 1.717085 h 1.6802 v 0.858543 h -1.6802 v 1.717084 h -0.8401 V 12.59151 h -1.680198 v -0.858543 h 1.680198 z"
     fill="currentColor"
     id="path8"
     style="color:#363636;stroke-width:0.84927"
     clip-path="url(#clipPath1857)"
     transform="matrix(1.2693005,0,0,1.2663338,-4.407347,-3.6430197)" />
  <path
     id="path5"
     style="fill:currentColor;stroke-width:1.05012"
     class="ColorScheme-Text"
     d="m 2.8359375,0.63867188 c -1.161952,0 -2.09570314,0.93838992 -2.09570312,2.10351562 V 13.257812 c 0,1.165125 0.93375112,2.103516 2.09570312,2.103516 H 13.324219 c 1.161953,0 2.097656,-0.93839 2.097656,-2.103516 v -2.849609 c -0.03007,0.0902 -0.05943,0.180893 -0.08789,0.271485 -0.01715,0.05459 -0.03054,0.110532 -0.05078,0.164062 -0.03451,0.09123 -0.07531,0.179681 -0.113281,0.269531 -0.02262,0.04452 -0.04355,0.08956 -0.06445,0.134766 0.0054,0.0058 0.01037,0.01194 0.01172,0.01758 0.0359,0.148398 0.0061,0.05589 -0.0059,0.121094 -0.02242,0.121828 -0.03889,0.244889 -0.05859,0.367187 -0.01549,0.05431 -0.02839,0.10874 -0.04687,0.16211 -0.0089,0.02573 -0.02292,0.0499 -0.03516,0.07422 -0.0032,0.0062 -0.0062,0.01158 -0.0098,0.01758 -0.0025,-0.0016 -0.0053,-0.0039 -0.0078,-0.0059 -0.02107,0.06035 -0.03806,0.121211 -0.03711,0.1875 -0.01013,0.07584 -0.0193,0.152656 -0.0293,0.228516 -0.0082,0.06254 -0.01757,0.124912 -0.02539,0.1875 0,0 0,0.002 0,0.002 -0.0016,0.01307 -0.0043,0.02599 -0.0059,0.03906 -4.67e-4,0.0039 0.0033,0.0093 0.0039,0.01367 0.0053,0.01602 0.0086,0.02995 -0.002,0.03125 -0.06656,0.0083 -0.135652,0.0065 -0.201172,-0.0078 -0.0024,-5.29e-4 -0.0031,-0.004 -0.0039,-0.0059 -0.0032,-0.0072 0.003,-0.01996 0.0039,-0.0293 0.001,-0.0097 0.0027,-0.02464 0.0039,-0.03516 1.84e-4,-0.03005 -0.0011,-0.01952 -0.0059,-0.05469 -0.0083,0.01722 -0.0206,0.03432 -0.0332,0.05078 -0.0178,0.06435 -0.0313,0.129401 -0.02539,0.195313 l 0.0098,0.03906 c 0.0013,10e-4 0.0037,3.06e-4 0.0039,0.002 0.0054,0.04282 0.0075,0.08596 0.01172,0.128906 -2e-4,0.187857 -0.0072,0.376571 -0.0059,0.564453 4.52e-4,0.03328 0.0019,0.06633 0.002,0.09961 3.43e-4,0.198486 -0.200913,0.198486 -0.201172,0 -4.3e-5,-0.03292 4.21e-4,-0.0667 0,-0.09961 -0.0013,-0.184665 0.0027,-0.368098 0.0039,-0.552734 7e-4,-0.02135 0.0066,-0.04326 0.0039,-0.06445 -0.0053,-0.04101 -0.04413,-0.07484 -0.02734,-0.121094 -0.0031,-0.05719 0.0045,-0.113633 0.01563,-0.169922 -0.0019,-6e-5 -0.004,1.24e-4 -0.0059,0 -0.02175,-0.0014 -0.0083,-0.04627 0,-0.06641 0.0019,-0.0046 0.0054,-0.0093 0.0078,-0.01367 0,0 -0.002,0 -0.002,0 0.0017,-0.01956 0.0031,-0.03917 0.0059,-0.05859 0.02245,-0.155174 0.04628,-0.309967 0.07031,-0.464844 -0.0023,-0.08964 -2.17e-4,-0.179234 0.0293,-0.263672 0.0062,-0.03568 0.01643,-0.07132 0.01953,-0.107422 0.0011,-0.01306 2.5e-5,-0.02607 0,-0.03906 -0.0027,-0.01023 -0.0025,-0.02325 0,-0.03516 -7.3e-5,-0.0026 7.2e-5,-0.0052 0,-0.0078 -0.0038,0.0031 -0.0062,0.005 0,-0.0059 -2.13e-4,-0.0085 0,-0.01687 0,-0.02539 v -0.453125 -0.07031 c -0.02192,0.02651 -0.03259,0.03897 -0.05859,0.07031 -0.0349,0.04206 -0.07041,0.08334 -0.105469,0.125 v 2.042968 c 0,0.582562 -0.467852,1.050782 -1.048828,1.050782 v -2.101563 c 0,-1.165126 -0.935702,-2.103515 -2.097657,-2.103515 H 4.9335938 c -1.1619522,0 -2.0976563,0.938389 -2.0976563,2.103515 v 2.101563 c -0.580976,0 -1.0488281,-0.468215 -1.0488281,-1.050782 V 2.7421875 c 0,-0.5825629 0.4678521,-1.0507812 1.0488281,-1.0507813 h 2.0976563 v 3.1542969 c 0,1.1651257 0.9357042,2.1035155 2.0976562,2.1035157 h 2.0976562 c 1.1619528,0 2.0976568,-0.93839 2.0976558,-2.1035157 v -2.71875 L 14.373047,5.28125 v 3.921875 h 0.123047 0.189453 0.179687 0.205078 0.175782 0.175781 V 6.3320312 5.8964844 4.8457031 L 11.226562,0.63867188 H 10.177734 5.9824219 4.9335938 Z M 5.9824219,1.6914062 H 8.0800781 V 5.8964844 H 7.03125 c -0.5809759,0 -1.0488281,-0.4682185 -1.0488281,-1.0507813 z m 8.3906251,7.7128907 v 0.4433593 c 0.03386,0.021704 0.04704,0.065483 0.02539,0.1132813 0.0302,-0.029666 0.05788,-0.060124 0.08984,-0.087891 0.01588,-0.013799 0.03241,-0.027686 0.04883,-0.041016 v -0.1875 c 0,-0.099243 0.04949,-0.1484375 0.09961,-0.1484374 0.05013,0 0.09961,0.049194 0.09961,0.1484374 v 0.039063 c 8.05e-4,-0.00102 0.0031,-9.33e-4 0.0039,-0.00195 0.03212,-0.040651 0.06404,-0.081487 0.09961,-0.1191406 0.02213,-0.02342 0.05885,-0.027058 0.08789,-0.041016 0.04284,0.037345 0.09776,0.062563 0.126954,0.1113281 0.0069,0.011594 0.0082,0.024987 0.0039,0.039063 0.106921,0.031945 0.0895,0.049671 0.05078,0.1171875 -0.06249,0.1048265 -0.124976,0.2079607 -0.197266,0.3066405 -0.01922,0.02624 -0.03989,0.05102 -0.06055,0.07617 -0.06127,0.112554 -0.09504,0.176644 -0.115234,0.214844 v 0.07031 c 0.03105,-0.0386 0.06256,-0.07683 0.09375,-0.115234 0.115117,-0.143421 0.152944,-0.188437 0.261719,-0.320313 0,0 0,-0.002 0,-0.002 -0.0036,-0.01723 -0.01135,-0.035676 0.002,-0.041015 0.0208,-0.00835 0.03199,-0.010929 0.04883,-0.017578 0.01012,-0.012564 0.02004,-0.028763 0.03125,-0.021484 0.0028,0.00182 0.0067,0.00399 0.0098,0.00586 0.0084,-0.00319 0.02214,-0.00912 0.0293,-0.011719 0.03315,-0.088461 0.0836,-0.187329 0.15625,-0.2363282 0.01266,-0.00854 0.03595,-0.025351 0.05273,-0.033203 V 9.4042969 H 15.246094 15.070312 14.865234 14.685547 14.496094 Z M 14.90625,9.609375 c -0.007,6.778e-4 -0.031,0.0079 -0.04297,0.00781 0.0013,0.00196 0.0026,0.0039 0.0039,0.00586 0.01402,-0.00216 0.02724,-0.00441 0.03906,-0.011719 z m 0.515625,0.089844 c -0.01735,0.014549 -0.04232,0.026062 -0.05859,0.041016 0.0061,0.024669 0.0016,0.092222 0.01953,0.074219 0.01996,-0.020027 0.0301,-0.046622 0.03906,-0.074219 z M 14.960938,10.5 c -0.09864,0.121511 -0.160695,0.198904 -0.22461,0.277344 v 0.279297 c 0.01065,-0.03263 0.02095,-0.06526 0.0332,-0.09766 0.016,-0.04233 0.03887,-0.08338 0.05664,-0.125 0.078,-0.1827 0.08829,-0.212381 0.134766,-0.333984 z M 4.9335938,11.154297 h 6.2929682 c 0.580976,0 1.048829,0.470171 1.048829,1.052734 v 2.101563 H 3.8847656 v -2.101563 c 0,-0.582563 0.467852,-1.052734 1.0488282,-1.052734 z m 10.1425782,0.169922 c -0.002,6.5e-4 -0.0042,0.0029 -0.0059,0.0039 0.0038,-0.0017 0.0081,-0.002 0.01172,-0.0039 0.0022,-0.0012 -0.0019,-0.0013 -0.0059,0 z m -0.21875,0.595703 c -1.01e-4,0.01126 1.02e-4,0.02993 0,0.04297 0.01753,0.0031 0.03938,0.0069 0.06445,0.0098 -0.01613,-0.01668 -0.03282,-0.0347 -0.04883,-0.05078 -0.0052,-8.5e-4 -0.01045,-0.0011 -0.01563,-0.002 z m 0.113281,0.02734 c -0.0038,0.0096 -0.0062,0.01961 -0.0098,0.0293 0.0051,4.35e-4 0.0082,0.0016 0.01367,0.002 0.0095,-0.01368 0.0069,-0.02366 -0.0039,-0.03125 z"
     clip-path="url(#clipPath2021)" />
</svg>
